<?xml version="1.0" standalone="no"?>
<!DOCTYPE svg PUBLIC "-//W3C//DTD SVG 20010904//EN"
 "http://www.w3.org/TR/2001/REC-SVG-20010904/DTD/svg10.dtd">
<svg version="1.0" xmlns="http://www.w3.org/2000/svg"
 width="420.000000pt" height="420.000000pt" viewBox="0 0 420.000000 420.000000"
 preserveAspectRatio="xMidYMid meet">
<metadata>
Created by potrace 1.11, written by Peter Selinger 2001-2013
</metadata>
<g transform="translate(0.000000,420.000000) scale(0.100000,-0.100000)"
fill="#000000" stroke="none">
<path d="M2085 3341 c-3 -5 -18 -10 -33 -11 -76 -3 -102 -6 -102 -12 0 -4 -8
-7 -17 -7 -40 -2 -69 -8 -89 -19 -12 -6 -24 -8 -28 -5 -3 3 -6 1 -6 -6 0 -7
-6 -11 -14 -8 -8 3 -16 1 -18 -4 -2 -6 -10 -11 -18 -13 -8 -1 -25 -8 -38 -14
-12 -7 -28 -10 -34 -6 -7 4 -8 3 -4 -5 4 -6 0 -14 -11 -18 -10 -4 -20 -9 -23
-13 -16 -20 -72 -50 -81 -44 -7 4 -9 3 -6 -3 6 -10 -27 -43 -44 -43 -5 0 -7
-5 -3 -12 5 -8 2 -9 -10 -5 -9 4 -15 3 -11 -2 7 -12 -52 -71 -61 -62 -4 3 -4
1 -1 -6 10 -16 -22 -46 -41 -38 -13 5 -13 3 -2 -11 9 -9 10 -18 4 -22 -13 -9
-79 -111 -95 -145 -7 -15 -16 -27 -21 -27 -5 0 -6 -5 -3 -11 4 -6 -1 -17 -11
-25 -11 -9 -13 -13 -7 -9 9 4 11 1 7 -9 -3 -9 -10 -13 -15 -10 -5 3 -6 -2 -3
-10 3 -9 1 -16 -6 -16 -6 0 -9 -4 -6 -8 7 -12 -16 -82 -25 -76 -4 2 -11 -1
-15 -7 -4 -8 -3 -9 4 -5 7 4 12 1 12 -8 0 -9 -5 -16 -12 -16 -6 0 -9 -3 -5 -6
3 -3 0 -25 -8 -49 -7 -24 -10 -47 -6 -51 3 -4 -3 -4 -13 0 -16 5 -17 4 -6 -9
10 -12 10 -18 -1 -32 -12 -14 -12 -16 0 -8 10 6 12 4 6 -5 -8 -13 -14 -44 -18
-92 -1 -15 -5 -29 -7 -32 -3 -2 -5 -32 -4 -65 1 -43 -2 -59 -10 -54 -8 4 -7 2
1 -7 8 -8 9 -20 2 -37 -5 -13 -5 -22 -1 -19 5 3 8 -10 8 -29 -1 -19 -5 -35
-11 -35 -5 0 -4 -4 4 -9 8 -5 12 -18 8 -30 -3 -12 -1 -24 4 -27 5 -3 9 -12 9
-20 0 -8 -4 -12 -10 -9 -5 3 -10 2 -10 -4 0 -5 5 -11 11 -13 6 -2 11 -24 12
-50 1 -25 5 -44 8 -42 4 2 9 -7 11 -21 4 -16 1 -22 -6 -18 -6 4 -6 0 1 -9 7
-8 10 -18 6 -21 -3 -4 -1 -7 5 -7 6 0 9 -7 6 -15 -4 -8 -1 -15 6 -15 6 0 8 -5
5 -10 -5 -8 -12 -7 -23 2 -15 12 -16 11 -3 -4 7 -10 17 -16 21 -13 4 3 11 -3
14 -12 4 -9 1 -20 -6 -25 -10 -6 -8 -8 5 -8 9 0 18 -3 18 -7 1 -5 3 -19 4 -32
1 -13 7 -26 12 -30 5 -3 15 -22 23 -41 7 -19 26 -54 41 -77 21 -31 24 -44 15
-53 -8 -10 -8 -11 0 -7 14 8 38 -18 30 -32 -4 -5 -1 -13 5 -17 8 -5 9 -3 4 7
-8 12 -6 12 8 0 10 -8 15 -16 13 -19 -3 -2 8 -15 25 -29 16 -14 29 -32 28 -41
0 -14 -2 -13 -9 3 -8 17 -8 17 -7 -7 1 -20 4 -24 13 -17 9 7 20 2 38 -16 14
-14 23 -25 20 -25 -3 0 6 -11 20 -24 27 -24 35 -43 14 -30 -7 5 -8 3 -3 -5 5
-9 11 -9 17 -3 7 7 17 4 32 -10 11 -11 48 -38 81 -61 33 -22 62 -43 65 -47 3
-3 20 -12 38 -19 17 -8 32 -17 32 -21 0 -7 23 -14 84 -26 24 -5 31 -12 23 -20
-4 -4 -13 -1 -22 6 -10 8 -15 9 -15 1 0 -6 5 -11 11 -11 5 0 8 -4 5 -9 -3 -5
2 -8 12 -7 9 0 16 -5 14 -12 -1 -8 2 -11 8 -7 8 5 8 11 0 20 -9 11 -7 14 9 12
19 -1 26 -10 22 -30 -1 -5 3 -6 8 -3 5 4 11 1 13 -6 3 -7 7 -5 11 6 4 9 3 15
-2 12 -5 -3 -12 1 -15 9 -4 12 -2 13 13 6 10 -6 22 -7 26 -3 4 4 2 -3 -4 -15
-6 -13 -8 -23 -2 -23 5 0 11 7 15 15 6 17 26 20 26 4 0 -5 -5 -7 -12 -3 -7 4
-8 3 -4 -4 5 -8 13 -9 25 -2 10 5 21 7 25 3 3 -3 27 -7 53 -7 27 -1 53 -4 58
-7 6 -3 36 -5 68 -4 31 1 57 -3 57 -7 0 -5 -4 -7 -9 -4 -4 3 -13 -7 -20 -22
-10 -24 -10 -25 2 -9 8 9 19 17 26 17 6 0 11 4 11 10 0 5 10 10 23 9 12 0 52
2 90 4 47 2 71 0 78 -10 15 -18 36 -16 43 3 4 10 2 13 -6 8 -7 -4 -8 -3 -4 5
4 6 16 9 26 6 10 -3 21 -2 24 4 3 5 22 7 41 5 20 -1 33 0 31 5 -7 10 25 8 43
-4 10 -5 12 -4 7 3 -7 12 11 17 43 13 7 -2 11 2 8 6 -3 5 5 9 19 9 19 0 23 -4
19 -20 -3 -12 -2 -15 1 -8 3 6 10 12 15 12 6 0 7 -6 3 -12 -4 -7 -3 -9 1 -5
12 10 15 38 4 31 -5 -3 -9 0 -9 6 0 6 11 8 24 6 14 -2 27 -1 29 2 2 4 2 2 1
-5 -2 -7 2 -15 8 -19 7 -4 8 -3 4 4 -4 7 -2 12 3 12 6 0 10 6 9 13 -2 6 3 11
10 9 7 -1 22 3 33 9 16 8 20 7 17 -5 -2 -8 2 -14 7 -13 6 1 9 6 7 10 -1 5 7 6
18 2 12 -4 20 -2 20 5 0 6 -4 9 -8 6 -4 -2 -14 0 -22 6 -12 8 -12 9 2 4 10 -3
20 -1 23 4 8 13 25 13 25 -1 0 -5 -5 -7 -12 -3 -6 4 -8 3 -5 -3 8 -12 52 -10
51 3 -1 5 10 20 25 33 17 17 20 23 8 18 -22 -8 -35 19 -18 36 9 9 11 7 6 -8
-5 -15 -4 -17 3 -6 11 16 5 41 -9 41 -6 0 -6 7 -1 18 10 20 8 145 -3 163 -5 8
-4 10 3 5 7 -4 12 -2 12 3 0 6 -9 11 -21 11 -11 0 -18 4 -14 9 9 15 -48 17
-77 3 -15 -7 -32 -11 -38 -7 -5 3 -10 2 -10 -3 0 -9 -23 -17 -71 -27 -9 -2
-38 -11 -64 -19 -25 -9 -50 -14 -55 -11 -5 3 -11 1 -15 -5 -3 -5 -19 -8 -35
-6 -16 2 -27 0 -25 -5 3 -4 -3 -8 -12 -7 -10 0 -47 -3 -83 -6 -112 -11 -313
-8 -305 4 2 4 -10 5 -28 2 -19 -2 -27 0 -20 5 7 5 -6 9 -34 9 -25 1 -48 6 -52
10 -3 5 -16 10 -28 11 -36 4 -131 52 -160 81 -14 15 -20 18 -12 7 13 -20 13
-20 -8 -1 -13 10 -20 23 -16 29 4 6 0 8 -8 5 -10 -4 -36 15 -72 52 -37 37 -53
60 -45 63 8 4 7 6 -4 6 -9 1 -20 10 -23 21 -3 11 -10 20 -15 20 -4 0 -10 7
-13 14 -4 10 -1 13 9 9 7 -3 14 0 14 7 0 6 -4 9 -9 5 -15 -8 -50 35 -44 53 4
10 2 13 -6 8 -6 -4 -11 -4 -10 1 1 4 -3 21 -10 37 -6 16 -9 31 -7 34 3 2 -2
11 -10 19 -8 9 -12 23 -9 34 4 10 2 19 -3 19 -18 0 -20 40 -4 57 16 16 16 16
0 10 -10 -3 -20 -2 -23 2 -3 5 2 11 10 15 8 3 15 11 15 18 0 10 -2 10 -9 -1
-10 -16 -18 -5 -26 39 -5 26 -3 31 7 22 10 -8 13 -4 15 15 1 17 -2 21 -7 13
-16 -27 -33 16 -20 50 1 3 2 8 1 13 -2 12 6 8 20 -10 12 -14 12 -16 0 -8 -10
6 -12 4 -6 -5 6 -9 4 -11 -6 -5 -8 5 -10 4 -6 0 4 -5 13 -10 20 -11 7 -1 19
-4 27 -6 8 -3 12 -3 7 -1 -4 3 -5 9 -2 14 4 5 0 6 -7 4 -8 -3 -14 2 -15 13 -1
14 6 18 28 18 16 0 29 -4 29 -8 0 -5 6 -6 13 -1 17 11 207 12 207 1 0 -5 -4
-7 -9 -3 -6 3 -8 -4 -6 -16 6 -28 18 -41 13 -14 -2 13 3 20 12 20 8 0 14 -6
12 -13 -2 -10 2 -10 18 0 11 7 20 17 20 22 0 4 -6 3 -14 -3 -10 -8 -16 -8 -25
2 -9 11 -1 14 44 14 55 0 55 0 38 -21 -18 -20 -17 -20 2 -6 11 8 23 20 27 25
5 6 8 5 8 -2 0 -7 5 -13 11 -13 5 0 8 4 5 8 -3 5 24 9 59 9 64 -1 65 -1 47
-21 -16 -20 -16 -20 3 -6 11 8 23 20 27 25 5 6 8 5 8 -2 0 -7 5 -13 11 -13 5
0 8 4 4 9 -3 5 8 9 25 9 32 -1 47 -12 30 -23 -5 -3 -10 -2 -10 3 0 5 -7 9 -16
9 -15 0 -14 -2 1 -13 14 -10 22 -11 32 -3 7 6 11 14 9 18 -3 4 26 7 64 8 60 0
70 -2 76 -19 4 -14 9 -16 19 -8 9 8 15 8 18 0 3 -6 4 -5 3 2 -2 7 -10 12 -20
10 -9 -2 -16 2 -16 7 0 5 13 9 30 9 17 -1 27 -5 23 -11 -4 -6 -1 -7 8 -1 8 5
69 9 137 10 113 1 148 -5 122 -21 -5 -3 -10 -2 -10 2 0 5 -13 9 -29 8 -23 0
-28 -4 -25 -19 2 -10 6 -21 10 -25 4 -3 5 2 1 11 -7 19 14 30 34 18 14 -9 42
7 34 19 -2 4 38 7 88 7 79 0 94 -2 110 -19 9 -11 17 -16 17 -11 0 6 -5 15 -11
21 -7 7 -5 12 10 16 13 3 18 1 15 -8 -3 -7 0 -16 5 -20 6 -3 8 -12 5 -18 -4
-8 -2 -7 7 1 10 10 11 15 2 20 -7 4 -9 12 -5 17 13 18 43 17 65 -2 16 -13 18
-14 9 -2 -10 14 -9 18 5 24 10 5 22 7 26 6 5 -1 6 3 2 9 -5 8 -11 8 -20 0 -8
-7 -20 -8 -26 -4 -8 5 -9 3 -4 -6 5 -9 4 -11 -4 -6 -15 9 -5 26 16 26 13 0 14
2 2 17 -10 12 -11 15 -1 9 10 -6 11 -1 7 21 -6 27 -6 27 9 9 9 -11 16 -15 16
-9 0 7 -6 18 -13 25 -15 14 -19 50 -5 42 4 -3 8 0 8 5 0 6 -4 11 -10 11 -5 0
-8 15 -7 33 2 17 0 42 -5 55 -8 23 6 32 15 10 4 -10 6 -10 6 0 1 7 -6 15 -14
18 -14 6 -13 8 2 20 10 7 14 14 8 14 -5 0 -3 5 5 11 13 9 13 10 0 6 -8 -2 -14
-11 -12 -18 2 -8 0 -10 -5 -6 -13 13 -10 31 7 45 13 10 12 11 -4 5 -13 -4 -17
-3 -13 4 4 6 1 14 -5 17 -10 5 -10 7 0 12 10 5 10 9 1 20 -9 11 -8 18 2 31 10
11 10 14 2 9 -14 -8 -16 0 -15 47 0 15 -3 25 -7 23 -4 -3 -8 0 -8 7 -1 18 -10
60 -18 79 -5 13 -2 16 17 12 18 -4 16 -2 -7 10 -16 8 -27 15 -23 15 4 1 0 17
-8 36 -8 19 -14 37 -14 40 0 3 -7 22 -16 43 -23 51 -25 64 -11 82 11 13 10 13
-5 1 -16 -12 -22 -9 -19 12 0 4 -4 7 -9 7 -6 0 -10 5 -10 11 0 5 6 7 13 3 7
-4 9 -3 4 2 -5 5 -13 9 -17 9 -5 0 -27 26 -50 58 -22 33 -54 70 -70 84 -17 14
-28 29 -24 34 3 5 -1 9 -8 9 -8 0 -34 19 -58 43 -25 23 -40 35 -35 27 8 -13 7
-13 -5 0 -8 9 -19 18 -25 19 -30 10 -36 15 -31 27 3 7 0 16 -6 20 -6 4 -8 3
-4 -4 10 -16 -10 -24 -26 -10 -7 7 -22 15 -33 16 -11 2 -22 7 -25 10 -3 4 -16
9 -30 11 -14 1 -27 6 -30 10 -3 3 -21 8 -40 10 -19 2 -37 6 -40 10 -4 6 -41
11 -107 14 -7 0 -13 5 -13 11 0 6 -5 4 -10 -4 -5 -8 -10 -10 -10 -5 0 11 -40
16 -40 5 0 -3 -22 -5 -49 -6 -28 0 -48 3 -45 8 3 4 3 8 0 8 -3 0 -7 -4 -11 -9z
m-40 -331 c-3 -5 -2 -10 4 -10 5 0 12 4 15 9 8 12 180 5 184 -8 2 -6 8 -11 13
-11 6 0 7 5 3 12 -5 7 -3 8 7 2 8 -4 22 -10 31 -11 29 -5 108 -45 108 -55 0
-5 4 -7 9 -4 5 3 15 -1 22 -10 10 -13 10 -17 -2 -25 -9 -5 -10 -9 -2 -9 6 0
15 5 19 11 6 11 64 -36 64 -53 0 -4 9 -17 20 -28 11 -11 23 -34 27 -50 3 -16
9 -28 13 -25 4 3 10 -4 13 -15 3 -12 -1 -24 -11 -30 -15 -9 -15 -10 3 -8 16 3
22 -8 35 -67 14 -58 14 -72 4 -80 -10 -7 -11 -14 -3 -25 9 -13 10 -12 5 3 -3
9 -1 17 4 17 6 0 10 -10 11 -22 4 -89 4 -93 -14 -92 -9 1 -14 -2 -11 -7 3 -5
11 -9 19 -9 7 0 12 -8 11 -17 -3 -23 -80 -31 -104 -11 -9 7 -13 8 -9 2 4 -7
-2 -14 -13 -17 -11 -3 -22 -2 -24 1 -2 4 -52 5 -110 2 -86 -4 -110 -2 -122 10
-13 13 -14 13 -8 -4 6 -15 4 -17 -6 -11 -7 5 -49 8 -93 7 -47 -1 -86 3 -94 10
-11 8 -12 7 -7 -6 5 -13 2 -15 -12 -9 -11 3 -22 11 -26 17 -5 7 -8 5 -8 -4 0
-13 -19 -15 -117 -13 -65 1 -118 3 -118 3 0 1 -41 1 -90 2 -82 0 -91 2 -92 19
-2 23 12 25 21 4 3 -8 11 -15 18 -15 8 0 9 3 3 8 -5 4 -19 18 -30 31 l-20 24
25 -7 c23 -6 23 -6 8 7 -21 16 -24 32 -5 21 10 -6 10 -4 0 7 -16 16 -17 29 -2
29 5 0 7 -5 3 -12 -4 -7 -3 -8 5 -4 7 5 9 12 3 19 -12 17 -13 57 -1 57 6 0 7
-6 3 -12 -4 -7 -4 -10 1 -6 4 4 15 2 24 -4 12 -10 12 -7 -2 8 -9 11 -14 24
-10 29 5 4 2 5 -4 1 -9 -5 -11 -2 -7 8 3 9 11 13 18 9 6 -4 4 1 -4 12 -14 16
-13 17 6 11 18 -5 21 -3 20 16 -2 26 12 50 24 43 5 -3 11 -2 14 3 2 4 -6 8
-19 8 -13 0 -22 -3 -19 -7 2 -4 0 -10 -6 -14 -5 -3 -10 1 -10 10 0 8 7 18 15
21 8 4 12 10 9 15 -4 8 7 13 26 11 3 0 7 9 7 21 2 20 1 21 -11 5 -7 -10 -17
-18 -21 -18 -5 0 2 12 16 26 13 14 23 29 22 32 0 4 3 6 8 5 5 -2 9 5 9 16 0
22 23 44 35 33 5 -4 6 0 3 8 -3 8 0 21 8 27 11 11 12 7 9 -17 -2 -17 0 -28 5
-25 5 3 7 12 3 20 -3 10 1 15 12 15 10 0 13 -5 9 -12 -4 -7 -3 -8 4 -4 6 4 9
13 6 21 -4 8 -10 13 -14 10 -5 -3 -7 2 -6 10 1 9 6 16 12 17 5 1 18 10 28 20
10 9 23 15 27 12 4 -2 13 4 19 13 10 16 10 16 5 -4 -3 -12 -1 -24 4 -28 7 -4
8 0 4 11 -5 14 -3 15 16 4 13 -6 25 -9 28 -7 2 3 -5 8 -16 12 -12 3 -21 11
-21 16 0 6 5 7 10 4 6 -3 10 0 10 7 0 7 13 14 31 15 17 1 37 8 45 14 8 6 14 8
14 3 0 -4 5 -3 12 4 15 15 21 16 13 2z m-385 -370 c0 -5 -4 -10 -10 -10 -5 0
-10 5 -10 10 0 6 5 10 10 10 6 0 10 -4 10 -10z m1387 -1618 c-10 -10 -15 -22
-12 -25 3 -4 -1 -2 -8 4 -9 9 -9 12 1 16 6 3 10 9 6 14 -3 5 3 9 12 9 16 0 16
-1 1 -18z m-532 -140 c-8 -8 -25 10 -19 20 4 6 9 5 15 -3 4 -7 6 -15 4 -17z"/>
<path d="M2048 2983 c-23 -26 -23 -26 0 -12 12 8 22 17 22 21 0 5 4 8 10 8 5
0 7 -8 4 -17 -5 -15 -4 -16 5 -3 12 18 30 20 51 6 12 -8 13 -8 3 4 -22 24 -69
21 -95 -7z"/>
<path d="M2155 3000 c3 -5 8 -10 11 -10 2 0 4 5 4 10 0 6 -5 10 -11 10 -5 0
-7 -4 -4 -10z"/>
<path d="M2183 2987 c-2 -20 -1 -20 8 -4 10 17 12 17 37 1 24 -15 25 -15 11 0
-25 26 -55 28 -56 3z"/>
<path d="M2004 2989 c-8 -14 14 -19 25 -6 8 10 7 14 -5 14 -8 0 -17 -4 -20 -8z"/>
<path d="M2275 2979 c-18 -9 -18 -9 3 -5 19 4 22 1 17 -12 -5 -14 -4 -15 6 -4
18 17 -1 32 -26 21z"/>
<path d="M1960 2974 c0 -6 7 -19 16 -30 14 -18 14 -18 3 6 -14 31 -19 36 -19
24z"/>
<path d="M2116 2967 c3 -10 9 -15 12 -12 3 3 0 11 -7 18 -10 9 -11 8 -5 -6z"/>
<path d="M2339 2961 c13 -12 28 -21 34 -21 12 0 11 0 -28 24 l-30 17 24 -20z"/>
<path d="M1847 2919 c-19 -22 -21 -29 -8 -29 5 0 13 10 16 21 6 17 9 19 16 8
6 -9 9 -10 9 -2 0 21 -16 22 -33 2z"/>
<path d="M2391 2924 c0 -11 3 -14 6 -6 3 7 2 16 -1 19 -3 4 -6 -2 -5 -13z"/>
<path d="M2416 2922 c-3 -5 1 -9 9 -9 8 0 12 4 9 9 -3 4 -7 8 -9 8 -2 0 -6 -4
-9 -8z"/>
<path d="M2463 2885 c0 -8 4 -12 9 -9 5 3 6 10 3 15 -9 13 -12 11 -12 -6z"/>
<path d="M2490 2863 c5 -2 8 -9 5 -13 -3 -5 -1 -11 4 -14 5 -4 8 2 7 11 -2 9
-8 18 -15 19 -6 1 -7 0 -1 -3z"/>
<path d="M1749 2840 c-1 -3 -3 -15 -4 -28 -2 -22 -1 -22 13 -8 13 12 14 19 4
28 -7 7 -13 10 -13 8z"/>
<path d="M1722 2771 c-11 -7 -11 -9 0 -14 9 -3 15 1 15 9 0 8 -1 14 -1 14 -1
0 -7 -4 -14 -9z"/>
<path d="M2585 2640 c-3 -6 1 -7 9 -4 18 7 21 14 7 14 -6 0 -13 -4 -16 -10z"/>
<path d="M1630 2520 c0 -5 5 -10 11 -10 5 0 7 5 4 10 -3 6 -8 10 -11 10 -2 0
-4 -4 -4 -10z"/>
<path d="M2730 3161 c0 -6 4 -13 10 -16 6 -3 7 1 4 9 -7 18 -14 21 -14 7z"/>
<path d="M2846 3038 c3 -5 10 -6 15 -3 13 9 11 12 -6 12 -8 0 -12 -4 -9 -9z"/>
<path d="M2895 2981 c-3 -5 -2 -12 3 -15 5 -3 9 1 9 9 0 17 -3 19 -12 6z"/>
<path d="M2970 2845 c0 -5 5 -17 10 -25 5 -8 10 -10 10 -5 0 6 -5 17 -10 25
-5 8 -10 11 -10 5z"/>
<path d="M3016 2707 c3 -10 9 -15 12 -12 3 3 0 11 -7 18 -10 9 -11 8 -5 -6z"/>
<path d="M3055 2600 c-3 -5 -1 -10 4 -10 6 0 11 5 11 10 0 6 -2 10 -4 10 -3 0
-8 -4 -11 -10z"/>
<path d="M3070 2481 c0 -6 4 -13 10 -16 6 -3 7 1 4 9 -7 18 -14 21 -14 7z"/>
<path d="M3095 2301 c-3 -5 -2 -12 3 -15 5 -3 9 1 9 9 0 17 -3 19 -12 6z"/>
<path d="M1116 2227 c3 -10 9 -15 12 -12 3 3 0 11 -7 18 -10 9 -11 8 -5 -6z"/>
<path d="M3095 2180 c3 -5 8 -10 11 -10 2 0 4 5 4 10 0 6 -5 10 -11 10 -5 0
-7 -4 -4 -10z"/>
<path d="M3020 2042 c0 -4 10 -13 23 -21 22 -14 22 -14 3 8 -20 22 -26 25 -26
13z"/>
<path d="M1642 2026 c7 -8 15 -12 17 -11 5 6 -10 25 -20 25 -5 0 -4 -6 3 -14z"/>
<path d="M1698 2033 c6 -3 9 -10 5 -16 -4 -7 2 -5 13 3 10 8 20 15 22 16 2 1
-10 1 -25 1 -15 0 -22 -2 -15 -4z"/>
<path d="M1780 2033 c0 -1 10 -7 21 -14 13 -6 19 -7 15 -1 -3 6 0 12 6 15 7 2
1 4 -14 3 -16 0 -28 -2 -28 -3z"/>
<path d="M1965 2029 c-4 -6 -5 -12 -2 -15 2 -3 7 2 10 11 7 17 1 20 -8 4z"/>
<path d="M2070 2026 c14 -18 13 -19 -5 -12 -15 5 -17 4 -9 -4 9 -9 17 -8 33 2
11 7 21 17 21 22 0 4 -6 4 -13 -3 -10 -8 -17 -7 -27 2 -11 9 -10 7 0 -7z"/>
<path d="M2125 2029 c-4 -6 -5 -12 -2 -15 2 -3 7 2 10 11 7 17 1 20 -8 4z"/>
<path d="M2287 2022 c-24 -27 -21 -36 4 -11 11 11 19 23 16 25 -2 2 -11 -4
-20 -14z"/>
<path d="M2325 2029 c-4 -5 -4 -13 -1 -16 3 -4 6 0 6 8 0 11 2 11 10 -1 6 -9
10 -10 10 -3 0 17 -17 25 -25 12z"/>
<path d="M2370 2026 c7 -7 13 -7 20 0 6 6 3 10 -10 10 -13 0 -16 -4 -10 -10z"/>
<path d="M2493 2025 c-4 -5 -3 -7 2 -3 4 4 15 3 25 -2 11 -6 17 -5 17 3 0 15
-36 17 -44 2z"/>
<path d="M2580 2033 c0 -1 10 -7 21 -14 13 -6 19 -7 15 -1 -3 6 0 12 6 15 7 2
1 4 -14 3 -16 0 -28 -2 -28 -3z"/>
<path d="M2646 2027 c3 -10 9 -15 12 -12 3 3 0 11 -7 18 -10 9 -11 8 -5 -6z"/>
<path d="M2767 2022 c-24 -27 -21 -36 4 -11 11 11 19 23 16 25 -2 2 -11 -4
-20 -14z"/>
<path d="M2805 2029 c-4 -6 -5 -12 -2 -15 2 -3 7 2 10 11 7 17 1 20 -8 4z"/>
<path d="M2832 2028 c-9 -12 -8 -14 8 -13 11 1 26 8 33 15 10 12 9 12 -5 2
-12 -10 -17 -10 -20 -1 -3 8 -7 7 -16 -3z"/>
<path d="M2895 2030 c-3 -5 -1 -10 4 -10 6 0 11 5 11 10 0 6 -2 10 -4 10 -3 0
-8 -4 -11 -10z"/>
<path d="M2550 2019 c0 -5 4 -8 9 -5 5 3 14 -1 21 -9 7 -8 17 -15 23 -15 5 0
-2 9 -16 20 -28 23 -37 25 -37 9z"/>
<path d="M2935 2010 c10 -11 20 -20 23 -20 3 0 -3 9 -13 20 -10 11 -20 20 -23
20 -3 0 3 -9 13 -20z"/>
<path d="M1670 2009 c0 -5 5 -7 10 -4 6 3 10 8 10 11 0 2 -4 4 -10 4 -5 0 -10
-5 -10 -11z"/>
<path d="M1770 2016 c0 -3 9 -10 20 -16 11 -6 20 -8 20 -6 0 3 -9 10 -20 16
-11 6 -20 8 -20 6z"/>
<path d="M2009 2003 c-13 -16 -12 -17 4 -4 9 7 17 15 17 17 0 8 -8 3 -21 -13z"/>
<path d="M2169 2003 c-13 -16 -12 -17 4 -4 9 7 17 15 17 17 0 8 -8 3 -21 -13z"/>
<path d="M2217 2009 c7 -7 15 -10 18 -7 3 3 -2 9 -12 12 -14 6 -15 5 -6 -5z"/>
<path d="M2473 2006 c0 -15 22 -15 34 0 4 5 4 6 -1 2 -5 -4 -14 -3 -21 2 -8 7
-12 5 -12 -4z"/>
<path d="M1595 1920 c3 -5 8 -10 11 -10 2 0 4 5 4 10 0 6 -5 10 -11 10 -5 0
-7 -4 -4 -10z"/>
<path d="M1615 1820 c3 -5 8 -10 11 -10 2 0 4 5 4 10 0 6 -5 10 -11 10 -5 0
-7 -4 -4 -10z"/>
<path d="M1630 1756 c0 -3 9 -10 20 -16 11 -6 20 -8 20 -6 0 3 -9 10 -20 16
-11 6 -20 8 -20 6z"/>
<path d="M1666 1678 c3 -5 10 -6 15 -3 13 9 11 12 -6 12 -8 0 -12 -4 -9 -9z"/>
<path d="M1214 1576 c1 -8 5 -18 8 -22 4 -3 5 1 4 10 -1 8 -5 18 -8 22 -4 3
-5 -1 -4 -10z"/>
<path d="M1294 1441 c0 -11 5 -17 13 -14 10 4 11 9 2 19 -15 18 -15 18 -15 -5z"/>
<path d="M1356 1322 c-3 -5 1 -9 9 -9 8 0 15 4 15 9 0 4 -4 8 -9 8 -6 0 -12
-4 -15 -8z"/>
<path d="M1379 1273 c-13 -16 -12 -17 4 -4 16 13 21 21 13 21 -2 0 -10 -8 -17
-17z"/>
<path d="M3077 1269 c7 -7 15 -10 18 -7 3 3 -2 9 -12 12 -14 6 -15 5 -6 -5z"/>
<path d="M1437 1239 c7 -7 15 -10 18 -7 3 3 -2 9 -12 12 -14 6 -15 5 -6 -5z"/>
<path d="M3073 1215 c0 -8 4 -12 9 -9 5 3 6 10 3 15 -9 13 -12 11 -12 -6z"/>
<path d="M3096 1202 c-3 -5 1 -9 9 -9 8 0 12 4 9 9 -3 4 -7 8 -9 8 -2 0 -6 -4
-9 -8z"/>
<path d="M1486 1187 c3 -10 9 -15 12 -12 3 3 0 11 -7 18 -10 9 -11 8 -5 -6z"/>
<path d="M3075 1169 c-4 -6 -5 -12 -2 -15 2 -3 7 2 10 11 7 17 1 20 -8 4z"/>
<path d="M1536 1133 c-6 -14 -5 -15 5 -6 7 7 10 15 7 18 -3 3 -9 -2 -12 -12z"/>
<path d="M1557 1126 c-4 -10 -3 -15 3 -11 6 3 10 1 10 -6 0 -7 3 -10 6 -6 3 3
2 13 -4 22 -8 16 -9 16 -15 1z"/>
<path d="M3074 1129 c-3 -6 0 -18 9 -26 10 -10 17 -12 22 -4 4 7 1 10 -7 9 -7
-2 -12 5 -12 15 2 20 -2 22 -12 6z"/>
<path d="M1602 1097 c10 -7 14 -18 10 -22 -4 -5 -2 -5 5 -2 6 4 19 -1 29 -10
9 -10 15 -12 13 -5 -2 7 -20 22 -39 33 -19 12 -27 14 -18 6z"/>
<path d="M1670 1050 c0 -5 5 -10 11 -10 5 0 7 5 4 10 -3 6 -8 10 -11 10 -2 0
-4 -4 -4 -10z"/>
<path d="M1650 1025 c0 -8 29 -12 39 -5 9 5 4 8 -13 8 -14 0 -26 -2 -26 -3z"/>
<path d="M1706 1003 c-6 -14 -5 -15 5 -6 7 7 10 15 7 18 -3 3 -9 -2 -12 -12z"/>
<path d="M1750 1000 c0 -5 5 -10 11 -10 5 0 7 5 4 10 -3 6 -8 10 -11 10 -2 0
-4 -4 -4 -10z"/>
<path d="M1773 963 c0 -9 6 -9 21 -1 30 15 30 16 3 14 -13 0 -24 -6 -24 -13z"/>
<path d="M2900 955 c-7 -9 -8 -15 -2 -15 5 0 12 7 16 15 3 8 4 15 2 15 -2 0
-9 -7 -16 -15z"/>
<path d="M2830 941 c0 -6 4 -13 10 -16 6 -3 7 1 4 9 -7 18 -14 21 -14 7z"/>
<path d="M2755 929 c-4 -6 -13 -8 -21 -5 -8 3 -18 -4 -24 -17 -10 -19 -9 -20
2 -6 7 9 18 14 24 12 6 -2 17 3 24 12 7 8 10 15 7 15 -3 0 -9 -5 -12 -11z"/>
<path d="M2656 907 c-16 -12 -16 -14 -3 -14 9 0 18 6 21 14 3 7 4 13 3 13 -2
0 -11 -6 -21 -13z"/>
<path d="M2034 898 c-4 -7 -3 -10 1 -5 5 4 18 -1 29 -10 21 -18 21 -18 2 5
-22 26 -23 26 -32 10z"/>
<path d="M2586 898 c3 -4 0 -8 -5 -8 -6 0 -11 -4 -11 -8 0 -5 7 -9 15 -9 8 0
12 4 9 9 -3 4 0 8 5 8 6 0 11 4 11 8 0 5 -7 9 -15 9 -8 0 -12 -4 -9 -9z"/>
<path d="M2755 901 c-3 -5 -2 -12 3 -15 5 -3 9 1 9 9 0 17 -3 19 -12 6z"/>
<path d="M2088 893 c6 -3 9 -10 5 -16 -3 -7 -3 -9 2 -5 4 4 15 2 24 -5 14 -11
14 -10 2 6 -15 20 -2 23 19 5 12 -11 12 -10 2 3 -7 9 -25 16 -40 16 -15 0 -21
-2 -14 -4z"/>
<path d="M2161 883 c7 -12 15 -20 18 -17 3 2 -3 12 -13 22 -17 16 -18 16 -5
-5z"/>
<path d="M2193 873 c0 -9 4 -10 14 -2 7 6 13 12 13 14 0 1 -6 2 -13 2 -8 0
-14 -6 -14 -14z"/>
<path d="M2232 885 c4 -4 0 -13 -9 -20 -13 -10 -14 -13 -2 -20 8 -5 11 -5 7 0
-4 4 0 13 9 20 13 10 14 13 2 20 -8 5 -11 5 -7 0z"/>
<path d="M2351 881 c-9 -6 -7 -10 8 -14 14 -3 19 -10 15 -21 -3 -9 -4 -16 -1
-16 3 0 7 6 10 13 7 19 -17 47 -32 38z"/>
<path d="M2457 873 c3 -7 6 -13 8 -13 2 0 5 6 8 13 3 8 -1 14 -8 14 -7 0 -11
-6 -8 -14z"/>
<path d="M2414 864 c1 -7 6 -17 11 -21 4 -4 5 -3 1 4 -3 7 1 13 11 15 15 3 15
5 -3 10 -15 4 -21 1 -20 -8z"/>
</g>
</svg>
